# xmcd
#
# Track frame offsets:
#	150
#	13837
#	32789
#	50604
#	64359
#	83186
#	98466
#	114823
#	128518
#	142795
#	163875
#	179255
#	197462
#	215735
#	232373
#	251175
#	268558
#	283313
#	299878
#
# Disc length: 4271 seconds
#
# Revision: 4
# Processed by: cddbd v1.5.2PL0 Copyright (c) Steve Scherf et al.
# Submitted via: audiograbber 1.83.01
#
DISCID=2610ad13
DTITLE=MMC302 Music Maestro - MMC302 Country3 Disc 2 (MM)
DYEAR=2004
DGENRE=Karaoke
TTITLE0=Reba McEntire - I'm A Survivor (MM)
TTITLE1=Clay Davidson - Unconditional (MM)
TTITLE2=Brad Paisley - We Danced (MM)
TTITLE3=Trick Pony - Pour Me (MM)
TTITLE4=Soggy Bottom Boys - I Am A Man Of Constant Sorrow (MM)
TTITLE5=Cyndi Thomas - What I Really Meant To Say (MM)
TTITLE6=George Strait - Write This Down (MM)
TTITLE7=Aaron Tippin - Kiss This
TTITLE8=Jamie O'Neal - When I Think About Angels (MM)
TTITLE9=Chris Gains - It Don't Matter To The Sun (MM)
TTITLE10=Clay Walker - Live, Laugh, Love (MM)
TTITLE11=Lee Ann Womack and Sons Of The Pioneers - I Hope You Dance (MM)
TTITLE12=Steve Holy - The Hunger (MM)
TTITLE13=Mark Wills - Almost Doesn't Count (MM)
TTITLE14=Jo Dee Messina - Bring On The Rain (MM)
TTITLE15=Tracy Lawrence - Unforgiven (MM)
TTITLE16=Gary Allan - Man Of Me
TTITLE17=Carolyn Dawn Johnson - Complicated (MM)
TTITLE18=Tim McGraw - Angry All The Time (MM)
EXTD=
EXTT0=
EXTT1=
EXTT2=
EXTT3=
EXTT4=
EXTT5=
EXTT6=
EXTT7=
EXTT8=
EXTT9=
EXTT10=
EXTT11=
EXTT12=
EXTT13=
EXTT14=
EXTT15=
EXTT16=
EXTT17=
EXTT18=
PLAYORDER=
